<svg xmlns="http://www.w3.org/2000/svg" viewBox="0 0 55 55">
<path fill="#00468C" d="M46.259,12.675c3.271,4.101,5.232,9.29,5.232,14.931c0,13.229-10.763,23.993-23.992,23.993
	c-13.229,0-23.991-10.764-23.991-23.993c0-6.725,2.785-12.809,7.257-17.169c0.315,0.669,0.696,1.314,1.128,1.927
	C8.047,16.301,5.67,21.68,5.67,27.606c0,5.014,1.704,9.635,4.556,13.326c-0.628-3.351-0.103-7.059,0.747-9.796
	c1.251-4.03,2.823-5.845,6.651-9.489c0.675-1.022,0.629-0.974-0.279-1.742c-1.076-0.908-2.085-1.898-3.084-2.891
	c-0.498-0.494-0.367-0.977,0.303-1.238c0.563-0.217,1.154-0.359,1.857-0.573c-3.072-2.252-6.297-6.361-5.065-10.392
	c0.567-1.859,1.634-3.457,3.136-4.69c0.371-0.303,0.292,0.042,0.242,0.199c-0.005,0.013-0.005,0.013-0.017,0.045
	c-0.02,0.053-0.003,0.018,0.017-0.045c0.064-0.173-0.438,1.265-0.583,1.996c-0.277,1.377-0.229,2.376-0.193,2.701
	c0.145,1.29,0.6,2.704,1.422,3.756c1.682,2.155,4.414,3.035,5.336,3.267c0.449,0.112,1.068,0.089,1.441-0.145
	c0.823-0.511,1.607-0.492,2.437-0.167c0.745,0.293,1.456,0.695,2.219,0.931c0.964,0.296,1.952,0.534,2.948,0.679
	c0.74,0.109,1.525-0.077,2.256,0.055c0.888,0.161,1.836,0.365,2.581,0.832c0.854,0.539,1.692,0.719,2.624,0.576
	c0.767-0.118,1.539-0.275,2.272-0.523c2.21-0.752,3.446-2.914,2.907-5.432c-0.271-1.271-1.385-3.104-3.111-4.629
	c-0.409-0.363-0.563-0.686,0.388-0.241c0.776,0.362,1.483,0.789,2.175,1.435c0.974,0.91,1.807,2.086,2.375,3.111
	c0.718,1.295,0.901,3.009,0.799,4.071c-0.209,2.179-1.65,3.938-3.406,5.015c-0.895,0.547-1.959,0.852-2.98,1.156
	c-0.669,0.199-0.817,0.512-0.574,1.109c0.375,0.914,0.645,1.748,2.02,2.063c1.371,0.315,2.428,1.115,2.877,1.774
	c0.814,1.196-0.152,6.315-3.438,5.714c-2.295-0.42-3.458-0.396-5.026,0.076c-0.388,0.116-2.494,0.649-3.212,2.19
	c-0.586,1.259-0.509,3.099,1.424,5.243c3.008,3.34,8.438,4.262,13.172,2.428c2.179-3.396,3.449-7.429,3.449-11.754
	c0-4.575-1.417-8.824-3.832-12.336c0.414-0.806,0.674-1.669,0.76-2.561C46.258,12.699,46.258,12.686,46.259,12.675z M16.354,8.01
	c-0.274-0.351-0.505-0.784-0.695-1.258c3.496-1.993,7.536-3.138,11.84-3.138c4.75,0,9.179,1.394,12.909,3.785
	c0.42,0.661,0.687,1.264,0.781,1.705c0.117,0.547,0.117,1.063,0.033,1.542C37.47,7.603,32.695,5.776,27.5,5.776
	c-3.864,0-7.494,1.014-10.646,2.782C16.68,8.385,16.509,8.208,16.354,8.01z"/>
</svg>
